Coordinates
version=1
nRows=11
nColumns=32
inDegrees=yes

Units are S.I. units (second, meters, Newtons, ...)
If the header above contains a line with 'inDegrees', this indicates whether rotational values are in degrees (yes) or radians (no).

endheader
time	pelvis_tilt	pelvis_list	pelvis_rotation	pelvis_tx	pelvis_ty	pelvis_tz	hip_flexion_r	hip_adduction_r	hip_rotation_r	knee_angle_r	knee_adduction_r	med_cond_adduction_r	lat_cond_adduction_r	patella_r_constrained_knee_angle	hip_flexion_l	hip_adduction_l	hip_rotation_l	knee_angle_l	knee_adduction_l	med_cond_adduction_l	lat_cond_adduction_l	patella_l_constrained_knee_angle	lumbar_extension	lumbar_bending	lumbar_rotation	ankle_angle_r	subtalar_angle_r	mtp_angle_r	ankle_angle_l	subtalar_angle_l	mtp_angle_l
      2.24500000	    -11.57876843	     -5.54504506	      3.72475734	      0.90329253	      0.69173601	     -0.31731831	     25.50355723	      8.58205980	      0.59177231	    -22.88804244	     -4.55556535	     -0.00000000	     -0.00000000	     -0.39947170	     38.84885955	     -9.92434672	      1.48184889	    -71.48071371	      6.11188295	     -0.00000000	     -0.00000000	     -1.24757381	     -3.04567108	      8.49850087	     -1.26433236	      5.68882290	      7.23608184	     -0.00000000	     -2.92736539	      1.97764028	     -0.00000000
      2.25000000	    -11.63355838	     -5.25475695	      3.46438465	      0.90982704	      0.69294697	     -0.31748486	     24.48770849	      8.40438038	      0.82914067	    -21.92517950	     -4.69120438	      0.00000000	      0.00000000	     -0.38266657	     39.55158312	     -9.68940035	      1.51318076	    -70.28483297	      6.76660565	     -0.00000000	     -0.00000000	     -1.22670175	     -3.00416816	      8.20600740	     -0.94237279	      5.65013961	      7.35392427	     -0.00000000	     -2.69625689	      1.89176866	     -0.00000000
      2.25500000	    -11.72726425	     -4.90119766	      3.22067250	      0.91637700	      0.69402008	     -0.31764232	     23.54745689	      8.14493140	      1.02976627	    -21.03463296	     -4.82499319	     -0.00000000	     -0.00000000	     -0.36712360	     40.22321718	     -9.36184992	      1.48732024	    -68.92891077	      7.34364691	      0.00000000	      0.00000000	     -1.20303644	     -2.86531874	      7.79313789	     -0.65140847	      5.79783644	      7.50332385	     -0.00000000	     -2.44260507	      1.82707533	      0.00000000
      2.26000000	    -11.89719707	     -4.48080733	      2.90699869	      0.92291781	      0.69493779	     -0.31780980	     22.72971344	      7.79571532	      1.25996422	    -20.20045064	     -4.91379473	     -0.00000000	     -0.00000000	     -0.35256437	     40.89120635	     -8.97597936	      1.32378770	    -67.41364341	      7.82762973	     -0.00000000	     -0.00000000	     -1.17659004	     -2.66128167	      7.29576442	     -0.31150743	      6.08902971	      7.79720321	     -0.00000000	     -2.18616099	      1.79566388	     -0.00000000
      2.26500000	    -11.83622843	     -4.17731972	      2.68584931	      0.92949570	      0.69592003	     -0.31799530	     21.69655396	      7.59519823	      1.22190786	    -19.51775748	     -5.10174392	     -0.00000000	     -0.00000000	     -0.34064913	     41.31091169	     -8.71224207	      1.20068031	    -65.83921529	      8.21953400	      0.00000000	      0.00000000	     -1.14911108	     -2.80286010	      6.97484048	      0.03440066	      6.30327611	      8.12876549	      0.00000000	     -1.81011513	      1.78803765	      0.00000000
      2.27000000	    -11.93139819	     -3.78031287	      2.42980038	      0.93605514	      0.69662883	     -0.31825518	     20.85728355	      7.24604650	      1.31971971	    -18.90089542	     -5.19576153	      0.00000000	      0.00000000	     -0.32988286	     41.83368950	     -8.29620900	      0.98442982	    -64.13103708	      8.48109482	     -0.00000000	     -0.00000000	     -1.11929775	     -2.63712404	      6.53006080	      0.33341121	      6.44033986	      8.38096442	     -0.00000000	     -1.57175073	      1.72112581	      0.00000000
      2.27500000	    -11.97454298	     -3.39069718	      2.12062688	      0.94264623	      0.69727820	     -0.31845603	     19.99215247	      6.91781687	      1.37820627	    -18.35768734	     -5.28639016	     -0.00000000	     -0.00000000	     -0.32040209	     42.22564242	     -7.94431764	      0.70541279	    -62.30339752	      8.69593582	     -0.00000000	     -0.00000000	     -1.08739942	     -2.61070009	      6.13781758	      0.68106246	      6.56578781	      8.53727435	     -0.00000000	     -1.33704891	      1.60943248	      0.00000000
      2.28000000	    -12.03417962	     -3.00739384	      1.82100804	      0.94920597	      0.69776792	     -0.31870251	     19.17651237	      6.57928475	      1.37867244	    -17.87969217	     -5.38042490	     -0.00000000	     -0.00000000	     -0.31205950	     42.60269847	     -7.56911468	      0.40177654	    -60.37544533	      8.81230346	     -0.00000000	     -0.00000000	     -1.05375031	     -2.56577163	      5.76192283	      1.02474798	      6.73974255	      8.70295044	     -0.00000000	     -1.07707253	      1.47104565	      0.00000000
      2.28500000	    -12.18293038	     -2.61669691	      1.48774828	      0.95574291	      0.69803285	     -0.31895753	     18.50420516	      6.19973476	      1.43855177	    -17.52546677	     -5.40106499	      0.00000000	      0.00000000	     -0.30587710	     43.03221146	     -7.19637846	      0.09432038	    -58.35188394	      8.88067167	      0.00000000	      0.00000000	     -1.01843250	     -2.34773817	      5.36863616	      1.33141565	      7.02404468	      8.89403039	      0.00000000	     -0.90438453	      1.34492523	     -0.00000000
      2.29000000	    -12.36340536	     -2.20621537	      1.17073646	      0.96227647	      0.69813403	     -0.31929536	     17.92119094	      5.77185511	      1.45442358	    -17.27246100	     -5.40976153	      0.00000000	      0.00000000	     -0.30146131	     43.44258050	     -6.76099689	     -0.17755492	    -56.20605173	      8.91155546	      0.00000000	      0.00000000	     -0.98098066	     -2.08010591	      4.88927111	      1.62440718	      7.40501523	      9.11450714	      0.00000000	     -0.72669904	      1.24721862	     -0.00000000
      2.29500000	    -12.32176391	     -1.95234309	      0.81553281	      0.96874637	      0.69825145	     -0.31954269	     17.08137674	      5.59385801	      1.47063526	    -16.99574187	     -5.53049302	      0.00000000	      0.00000000	     -0.29663165	     43.64478379	     -6.57465482	     -0.48496820	    -54.13456610	      8.87483418	      0.00000000	      0.00000000	     -0.94482642	     -2.24327487	      4.81711832	      1.98269474	      7.77448616	      9.70668027	     -0.00000000	     -0.46696865	      1.08755155	     -0.00000000
